HIERARCHY
ROOT butt
{
	OFFSET 0.000000 0.000000 0.000000
	CHANNELS 6 Xposition Yposition Zposition Xrotation Yrotation Zrotation
	JOINT lhip
	{
		OFFSET 0.583813 0.718669 -0.323938
		CHANNELS 6 Xposition Yposition Zposition Xrotation Yrotation Zrotation
		JOINT lknee
		{
			OFFSET 0.553245 0.216339 -1.020714
			CHANNELS 6 Xposition Yposition Zposition Xrotation Yrotation Zrotation
			JOINT lankle
			{
				OFFSET -0.339279 0.080945 -1.465530
				CHANNELS 6 Xposition Yposition Zposition Xrotation Yrotation Zrotation
				End Site
				{
					OFFSET 0.537810 -0.043777 -0.195635
				}
			}
		}
	}
	JOINT rhip
	{
		OFFSET 0.339136 -0.940503 -0.149914
		CHANNELS 6 Xposition Yposition Zposition Xrotation Yrotation Zrotation
		JOINT rknee
		{
			OFFSET 0.601234 -0.223249 -1.073499
			CHANNELS 6 Xposition Yposition Zposition Xrotation Yrotation Zrotation
			JOINT rankle
			{
				OFFSET -0.245263 -0.041399 -1.532960
				CHANNELS 6 Xposition Yposition Zposition Xrotation Yrotation Zrotation
				End Site
				{
					OFFSET 0.653910 0.024899 -0.232875
				}
			}
		}
	}
	JOINT abdomen
	{
		OFFSET 0.907647 0.026340 0.317664
		CHANNELS 6 Xposition Yposition Zposition Xrotation Yrotation Zrotation
		JOINT neck
		{
			OFFSET 1.496963 0.039292 -0.038456
			CHANNELS 6 Xposition Yposition Zposition Xrotation Yrotation Zrotation
			End Site
			{
				OFFSET 2.739308 -0.092250 1.009232
			}
		}
		JOINT lshldr
		{
			OFFSET 1.132326 0.559775 -0.444207
			CHANNELS 6 Xposition Yposition Zposition Xrotation Yrotation Zrotation
			JOINT lelbow
			{
				OFFSET -0.149559 0.286290 -0.912030
				CHANNELS 6 Xposition Yposition Zposition Xrotation Yrotation Zrotation
				JOINT lwrist
				{
					OFFSET 0.485181 -0.390159 0.265472
					CHANNELS 6 Xposition Yposition Zposition Xrotation Yrotation Zrotation
					End Site
					{
						OFFSET 0.527290 -0.521758 -0.124363
					}
				}
			}
		}
		JOINT rshldr
		{
			OFFSET 1.100885 -0.503887 -0.296241
			CHANNELS 6 Xposition Yposition Zposition Xrotation Yrotation Zrotation
			JOINT relbow
			{
				OFFSET -0.198937 -0.642069 -0.689888
				CHANNELS 6 Xposition Yposition Zposition Xrotation Yrotation Zrotation
				JOINT rwrist
				{
					OFFSET 0.636091 0.394674 0.001069
					CHANNELS 6 Xposition Yposition Zposition Xrotation Yrotation Zrotation
					End Site
					{
						OFFSET 0.557086 0.133476 -0.377524
					}
				}
			}
		}
	}
}
MOTION
Frames: 6
Frame Time: 0.033333
-2.056680 0.102800 -0.333360 -8.557063 0.776137 27.901449 0.583813 0.718669 -0.323938 19.500666 -46.886196 -40.555068 0.553245 0.216339 -1.020714 -73.177732 26.064439 65.458443 -0.339279 0.080945 -1.465530 3.125942 -26.582063 1.036005 0.339136 -0.940503 -0.149914 -34.319604 -12.452791 -58.375441 0.601234 -0.223249 -1.073499 -8.054398 18.243020 47.198414 -0.245263 -0.041399 -1.532960 27.188186 0.754361 -5.371065 0.907647 0.026340 0.317664 19.150239 15.845692 10.268756 1.496964 0.039292 -0.038456 -16.580957 1.513058 -43.901191 1.132326 0.559775 -0.444207 -43.963558 -43.919520 -59.311758 -0.149559 0.286290 -0.912029 -56.693302 39.095392 56.664568 0.485181 -0.390159 0.265472 12.639392 5.159109 22.684021 1.100885 -0.503887 -0.296241 44.105834 -35.365589 29.337906 -0.198937 -0.642069 -0.689888 -59.125826 39.955036 4.124319 0.636091 0.394674 0.001069 9.759024 -34.329347 7.290967 
-2.071290 0.098120 -0.350940 -9.067839 -0.096154 28.733175 0.583813 0.718669 -0.323938 19.753703 -47.494431 -41.227063 0.553245 0.216339 -1.020714 -74.631168 26.166680 65.761724 -0.339279 0.080945 -1.465530 4.075620 -27.105761 1.261825 0.339136 -0.940503 -0.149914 -33.895241 -11.970055 -58.583448 0.601234 -0.223249 -1.073499 -8.623511 18.781207 47.429196 -0.245263 -0.041399 -1.532960 27.414737 0.443307 -5.262308 0.907647 0.026340 0.317664 18.918222 15.988042 9.706292 1.496963 0.039292 -0.038456 -16.997184 1.357279 -44.129022 1.132326 0.559775 -0.444207 -42.579129 -43.717879 -58.368823 -0.149559 0.286290 -0.912030 -56.855212 39.261874 56.808046 0.485181 -0.390159 0.265472 12.600179 5.151747 22.664420 1.100885 -0.503887 -0.296241 44.903501 -35.371313 28.772520 -0.198937 -0.642069 -0.689888 -59.196737 39.057395 4.007015 0.636091 0.394674 0.001069 8.720283 -34.608056 6.241194 
-2.078470 0.093140 -0.367690 -9.447220 -1.063534 29.595152 0.583813 0.718669 -0.323938 19.877872 -47.890688 -42.144808 0.553245 0.216339 -1.020714 -75.922614 26.245147 66.053455 -0.339279 0.080945 -1.465530 4.839370 -27.438272 1.447174 0.339136 -0.940503 -0.149914 -33.428636 -11.425927 -58.699247 0.601234 -0.223249 -1.073499 -9.301741 19.382026 47.468654 -0.245263 -0.041399 -1.532960 27.689252 0.104253 -5.150722 0.907647 0.026340 0.317664 18.424819 16.212383 8.900671 1.496964 0.039292 -0.038456 -17.370991 1.055995 -44.278136 1.132326 0.559775 -0.444207 -40.405268 -43.567308 -56.830749 -0.149559 0.286290 -0.912029 -56.989702 39.277290 56.805280 0.485181 -0.390159 0.265472 12.117686 5.118448 22.999038 1.100885 -0.503887 -0.296241 46.000030 -35.521041 28.229093 -0.198937 -0.642069 -0.689888 -59.408972 37.820410 4.002004 0.636091 0.394674 0.001069 7.274829 -34.964404 4.785819 
-2.081010 0.088000 -0.382470 -9.834370 -2.050645 30.365443 0.583813 0.718669 -0.323938 20.061025 -48.214497 -43.166119 0.553245 0.216339 -1.020714 -77.107221 26.323095 66.436355 -0.339279 0.080945 -1.465531 5.434296 -27.726653 1.607380 0.339136 -0.940503 -0.149914 -32.753749 -10.841745 -58.615693 0.601234 -0.223249 -1.073499 -9.841299 19.797909 47.182892 -0.245263 -0.041399 -1.532960 28.032259 -0.093791 -5.125105 0.907647 0.026340 0.317664 17.781913 16.420123 8.041797 1.496963 0.039292 -0.038456 -17.785213 0.714966 -44.332029 1.132326 0.559775 -0.444207 -38.091866 -43.415466 -55.278176 -0.149559 0.286290 -0.912030 -57.115913 39.119615 56.616708 0.485181 -0.390159 0.265472 11.429283 5.080868 23.620392 1.100885 -0.503887 -0.296241 47.249268 -35.901684 27.640287 -0.198937 -0.642069 -0.689888 -59.837532 36.377103 4.264794 0.636091 0.394674 0.001069 5.169749 -35.427566 2.664932 
-2.083010 0.082830 -0.392030 -10.335707 -3.005014 30.858067 0.583813 0.718669 -0.323938 20.483993 -48.521001 -44.086989 0.553245 0.216339 -1.020714 -78.180743 26.384713 67.002660 -0.339279 0.080945 -1.465530 5.839161 -28.092505 1.730687 0.339136 -0.940503 -0.149914 -31.761472 -10.178745 -58.183923 0.601234 -0.223249 -1.073499 -9.848364 19.684368 46.442933 -0.245263 -0.041399 -1.532960 28.400254 0.101865 -5.315579 0.907647 0.026340 0.317664 17.080012 16.552352 7.323946 1.496964 0.039292 -0.038456 -18.342403 0.415651 -44.377563 1.132326 0.559775 -0.444207 -36.182668 -43.238256 -54.135745 -0.149559 0.286290 -0.912029 -57.320942 38.871122 56.341028 0.485181 -0.390159 0.265472 10.761875 5.040197 24.263962 1.100885 -0.503887 -0.296241 48.461206 -36.631937 26.981774 -0.198937 -0.642069 -0.689888 -60.503523 34.916402 4.872735 0.636091 0.394674 0.001069 2.216733 -35.961492 -0.308083 
-2.089400 0.078150 -0.392130 -10.941595 -3.849784 30.895104 0.583813 0.718669 -0.323938 21.138028 -48.751773 -44.757919 0.553245 0.216339 -1.020714 -79.002715 26.454458 67.777675 -0.339279 0.080945 -1.465530 6.021374 -28.529345 1.818088 0.339136 -0.940503 -0.149914 -30.447931 -9.413012 -57.188566 0.601234 -0.223249 -1.073499 -9.021331 18.748905 45.175865 -0.245263 -0.041399 -1.532960 28.761650 0.937848 -5.863140 0.907647 0.026340 0.317664 16.331235 16.686458 6.938050 1.496964 0.039292 -0.038456 -19.136532 0.178316 -44.573828 1.132326 0.559775 -0.444207 -34.844661 -43.088324 -53.418052 -0.149559 0.286290 -0.912030 -57.688065 38.713874 56.113580 0.485181 -0.390159 0.265472 10.312330 5.012619 24.691936 1.100885 -0.503887 -0.296241 49.541189 -37.843657 26.370932 -0.198937 -0.642069 -0.689888 -61.412615 33.617467 5.870471 0.636091 0.394674 0.001069 -1.659806 -36.457323 -4.212383 
